<?xml version="1.0" encoding="UTF-8" standalone="no"?>
<!-- Creator: CorelDRAW 2019 (64-Bit) -->

<svg
   xml:space="preserve"
   width="528.4306mm"
   height="269.69006mm"
   version="1.0"
   style="clip-rule:evenodd;fill-rule:evenodd;image-rendering:optimizeQuality;shape-rendering:geometricPrecision;text-rendering:geometricPrecision"
   viewBox="0 0 52843.061 26969.006"
   id="svg47"
   sodipodi:docname="Diseño de Marca Fer.svg"
   inkscape:version="1.4 (86a8ad7, 2024-10-11)"
   xmlns:inkscape="http://www.inkscape.org/namespaces/inkscape"
   xmlns:sodipodi="http://sodipodi.sourceforge.net/DTD/sodipodi-0.dtd"
   xmlns="http://www.w3.org/2000/svg"
   xmlns:svg="http://www.w3.org/2000/svg"><sodipodi:namedview
   id="namedview47"
   pagecolor="#ffffff"
   bordercolor="#000000"
   borderopacity="0.25"
   inkscape:showpageshadow="2"
   inkscape:pageopacity="0.0"
   inkscape:pagecheckerboard="0"
   inkscape:deskcolor="#d1d1d1"
   inkscape:document-units="mm"
   inkscape:zoom="0.12708801"
   inkscape:cx="-735.71062"
   inkscape:cy="350.15104"
   inkscape:window-width="1920"
   inkscape:window-height="1009"
   inkscape:window-x="-8"
   inkscape:window-y="-8"
   inkscape:window-maximized="1"
   inkscape:current-layer="g47"
   showguides="true"><inkscape:page
     x="0"
     y="0"
     width="52843.062"
     height="26969.006"
     id="page49"
     margin="12699.532 0 10721.736"
     bleed="0"
     inkscape:label="Norum Negro"
     inkscape:export-filename="Norum Negro.png"
     inkscape:export-xdpi="96"
     inkscape:export-ydpi="96" /><inkscape:page
     x="-60855.77"
     y="-18.563177"
     width="52916.664"
     height="26987.566"
     id="page50"
     margin="0"
     bleed="0"
     inkscape:label="Norum Blanco"
     inkscape:export-filename="Norum Negro.png"
     inkscape:export-xdpi="96"
     inkscape:export-ydpi="96" /><inkscape:page
     x="-73259.648"
     y="-6176.1436"
     width="1322.9166"
     height="1322.9167"
     id="page51"
     margin="0"
     bleed="0"
     inkscape:label="Favicon"
     inkscape:export-filename="Favicon.png"
     inkscape:export-xdpi="96"
     inkscape:export-ydpi="96" /><inkscape:page
     x="-84867.656"
     y="7338.3779"
     width="10000"
     height="10000"
     id="page1"
     margin="0"
     bleed="0"
     inkscape:label="Icono pequeño"
     inkscape:export-filename="Icono pequeño.png"
     inkscape:export-xdpi="96"
     inkscape:export-ydpi="96" /><sodipodi:guide
     position="-41145.725,27224.408"
     orientation="0,-1"
     id="guide6"
     inkscape:locked="false" /><sodipodi:guide
     position="-43353.903,234.21457"
     orientation="0,-1"
     id="guide7"
     inkscape:locked="false" /></sodipodi:namedview>
 <defs
   id="defs1">
  <style
   type="text/css"
   id="style1">
   <![CDATA[
    .str2 {stroke:#373435;stroke-width:26.46;stroke-miterlimit:22.9256}
    .str4 {stroke:#373435;stroke-width:105.83;stroke-miterlimit:22.9256}
    .str0 {stroke:#373435;stroke-width:70.56;stroke-miterlimit:22.9256}
    .str3 {stroke:#373435;stroke-width:52.92;stroke-miterlimit:22.9256}
    .str5 {stroke:#373435;stroke-width:35.28;stroke-miterlimit:22.9256}
    .str1 {stroke:#373435;stroke-width:17.64;stroke-miterlimit:22.9256}
    .fil1 {fill:none}
    .fil0 {fill:none;fill-rule:nonzero}
    .fil2 {fill:#282829}
    .fil3 {fill:#373435;fill-rule:nonzero}
   ]]>
  </style>
 <style
   type="text/css"
   id="style1-9">
   <![CDATA[
    .str0 {stroke:#373435;stroke-width:0.9;stroke-miterlimit:22.9256}
    .fil2 {fill:none}
    .fil0 {fill:none;fill-rule:nonzero}
    .fil1 {fill:#282829}
   ]]>
  </style></defs>
 <g
   id="Capa_x0020_1"
   inkscape:label="Capa 1"
   inkscape:groupmode="layer"
   transform="translate(20882.358,-100023.73)">
  <metadata
   id="CorelCorpID_0Corel-Layer" />
  
  
  
  
  
  
  
  
  
  
  
  
  
  
  
  
  
  
  
  
  
  
  
  
  
  
  
  
  
  
  
  
  
  <g
   id="g47"
   transform="matrix(3.0059907,0,0,3.6708638,-86990.954,77475.189)"
   style="fill:#ffffff;fill-opacity:1;stroke:#ffffff;stroke-opacity:1"><path
     class="fil0 str0"
     d="m 13197.05,11192.51 h 710.73 l -6.47,-1687.79 c -0.44,-115.48 51.22,-217.78 154.97,-306.87 103.77,-89.09 228.91,-133.64 375.42,-133.64 150.38,0 268.11,34.65 353.2,103.94 73.48,59.4 110.38,130.34 110.69,212.83 l 6.96,1811.53 h 809.69 l -6.46,-1683.66 c -0.42,-108.89 55.11,-210.36 166.56,-303.58 111.45,-94.03 232.73,-141.06 363.82,-141.06 150.37,0 270.03,34.65 358.99,103.94 69.59,52.8 104.5,106.42 104.72,162.51 l 7.14,1861.85 h 809.69 l -7.42,-1935.26 c -1.02,-267.28 -102.05,-468.56 -303.06,-603.85 -177.85,-125.38 -419.06,-188.08 -723.66,-188.08 -374,0 -664.61,130.34 -871.82,391.02 -232.33,-260.68 -527.79,-391.02 -886.36,-391.02 -165.8,0 -309.31,31.35 -430.52,94.04 -121.22,62.69 -252.84,176.53 -394.86,341.52 l 2.9,-435.56 -704.85,0.02 z"
     id="path1"
     style="fill:#ffffff;fill-opacity:1;stroke:#ffffff;stroke-opacity:1" /><path
     class="fil0 str0"
     d="m 12971.41,11192.52 -600.13,-0.01 -1.26,-417.09 c -215.79,280.45 -473.24,420.68 -871.55,420.68 -354.94,0 -555.98,-83.62 -754.47,-256.96 -185.38,-161.89 -279.54,-369.11 -280.55,-623.78 l -7.39,-1850.06 h 837.6 l 7.18,1789.12 c 0.43,106.36 50.07,190.22 148.91,251.45 98.83,61.23 146.9,95.47 312.54,95.47 177.47,0 281.5,-41.91 411.31,-125.72 129.81,-83.81 194.47,-182.14 194.03,-294.97 l -6.87,-1711.75 h 610.65"
     id="path2"
     style="fill:#ffffff;fill-opacity:1;stroke:#ffffff;stroke-opacity:1" /><path
     class="fil0 str0"
     d="m 10440.39,9129.12 c -109.06,-10.07 -188.86,-15.09 -239.48,-15.09 -229.69,0 -409.54,52.83 -539.55,158.49 -130.02,105.67 -194.71,239.01 -194.09,400.03 l 5.76,1514.55 -709.9,5.43 -10.38,-2727.2 709.9,-5.43 2.01,528.33 c 57.78,-161.02 174.06,-296.87 348.81,-407.57 174.75,-110.69 349.93,-117.58 525.11,-117.58 19.47,0 52.56,3.36 99.3,10.06 z"
     id="path3"
     style="fill:#ffffff;fill-opacity:1;stroke:#ffffff;stroke-opacity:1" /><path
     class="fil0 str0"
     d="m 3576.66,8571.67 h 842.46 l 1.22,314.31 c 207.09,-280.46 454.18,-420.69 836.46,-420.69 340.65,0 605.93,87.04 795.85,261.12 178.53,161.19 268.28,369.11 269.25,623.78 l 7.1,1842.34 h -852.78 l -6.89,-1789.14 c -0.42,-106.37 -48.06,-190.21 -142.92,-251.45 -94.86,-61.24 -163.84,-91.88 -322.81,-91.88 -170.32,0 -270.17,41.91 -394.75,125.73 -124.59,83.81 -186.64,182.13 -186.22,294.97 l 6.59,1711.77 h -842.47 z"
     id="path4"
     style="fill:#ffffff;fill-opacity:1;stroke:#ffffff;stroke-opacity:1" /><path
     class="fil0 str0"
     d="m 8123.93,9836.03 c -0.74,-236.77 -55.95,-429.2 -165.61,-578.07 -109.66,-148.07 -247.91,-222.51 -414.73,-222.51 -166.83,0 -303.84,79.18 -411.02,236.76 -107.18,158.38 -160.38,360.31 -159.62,606.57 0.66,205.1 58.07,380.1 172.28,525.81 114.2,144.91 251.68,217.76 412.44,217.76 166.82,0 303.09,-73.65 408.8,-220.14 105.69,-147.29 158.18,-335.75 157.46,-566.18 z"
     id="path5"
     style="fill:none;fill-opacity:1;stroke:#ffffff;stroke-opacity:1" /><path
     class="fil0 str0"
     d="m 8760.89,9833.65 c 1.37,433.94 -106.01,769.69 -322.14,1007.25 -216.13,237.56 -521.35,356.34 -915.67,356.34 -367.02,0 -657.07,-123.53 -870.18,-370.59 -213.1,-247.07 -320.33,-584.4 -321.67,-1012.01 -1.32,-421.27 103.82,-750.68 315.39,-988.25 211.58,-237.55 509.97,-356.34 895.19,-356.34 382.19,0 680.58,120.37 895.18,361.1 214.59,240.73 322.56,574.89 323.9,1002.5 z"
     id="path6"
     style="fill:none;fill-opacity:1;stroke:#ffffff;stroke-opacity:1" /><path
     class="fil1 str1"
     d="m 2148.03,8465.35 16802.58,-0.03"
     id="path7"
     style="fill:#ffffff;fill-opacity:1;stroke:#ffffff;stroke-opacity:1" /><path
     class="fil1 str2"
     d="m 2148.03,11192.53 16257.12,-0.01"
     id="path8"
     style="fill:#ffffff;fill-opacity:1;stroke:#ffffff;stroke-opacity:1" /><path
     class="fil1 str1"
     d="m 2151.52,12877.48 16257.12,-0.01"
     id="path9"
     style="fill:#ffffff;fill-opacity:1;stroke:#ffffff;stroke-opacity:1" /><path
     class="fil1 str1"
     d="M 17516.71,13439.12 V 6218.7"
     id="path10"
     style="fill:#ffffff;fill-opacity:1;stroke:#ffffff;stroke-opacity:1" /><path
     class="fil1 str3"
     d="M 3581.93,13439.12 V 6218.7"
     id="path11"
     style="fill:#ffffff;fill-opacity:1;stroke:#ffffff;stroke-opacity:1" /><path
     class="fil1 str1"
     d="M 13197.05,12148.35 V 6218.71"
     id="path12"
     style="fill:#ffffff;fill-opacity:1;stroke:#ffffff;stroke-opacity:1" /><path
     class="fil1 str1"
     d="M 12971.41,12148.35 V 6218.71"
     id="path13"
     style="fill:#ffffff;fill-opacity:1;stroke:#ffffff;stroke-opacity:1" /><path
     class="fil2 str0"
     d="m 13197.05,8465.34 v 2727.18 l 710.73,-0.01 -6.47,-1687.79 c -0.44,-115.48 51.22,-217.78 154.97,-306.87 103.77,-89.09 228.91,-133.64 375.42,-133.64 150.38,0 268.11,34.65 353.2,103.94 73.48,59.4 110.38,130.34 110.69,212.83 l 6.96,1811.53 h 809.69 l -6.46,-1683.66 c -0.42,-108.89 55.11,-210.36 166.56,-303.58 111.45,-94.03 232.73,-141.06 363.82,-141.06 150.37,0 270.03,34.65 358.99,103.94 69.59,52.8 104.5,106.42 104.72,162.51 l 7.14,1861.85 h 809.69 l -7.42,-1935.26 c -1.02,-267.28 -102.05,-468.56 -303.06,-603.85 -176.99,-124.77 -416.73,-187.47 -719.25,-188.08 h -4.41 -3.77 c -372.18,0.88 -661.54,131.22 -868.05,391.02 -231.31,-259.54 -525.2,-389.87 -881.64,-391.01 h -4.72 -4.45 c -163.92,0.55 -305.95,31.9 -426.07,94.03 -121.22,62.69 -252.84,176.53 -394.86,341.52 l 2.9,-435.55 z"
     id="path14"
     style="fill:#ffffff;fill-opacity:1;stroke:#ffffff;stroke-opacity:1" /><path
     class="fil2 str0"
     d="M 12971.41,11192.52 V 8468.9 h -610.65 l 6.87,1711.75 c 0.44,112.83 -64.22,211.16 -194.03,294.97 -129.81,83.81 -233.84,125.72 -411.31,125.72 -165.64,0 -213.71,-34.24 -312.54,-95.47 -98.84,-61.23 -148.48,-145.09 -148.91,-251.45 l -7.18,-1789.09 h -420.31 v 2572.88 c 137.68,90.13 290.89,140.97 504.48,154.31 h 227.29 c 338.78,-23.47 569,-162.51 764.9,-417.1 l 1.26,417.1 z"
     id="path15"
     style="fill:#ffffff;fill-opacity:1;stroke:#ffffff;stroke-opacity:1" /><path
     class="fil2 str0"
     d="m 10458.58,9125.82 -2.51,-655.98 c -24.62,-3.53 -63.64,-2.83 -80.69,-4.5 h -157.31 c -134.99,6.36 -269.92,30.01 -404.6,115.32 -174.75,110.7 -291.03,246.55 -348.81,407.57 l -1.99,-522.89 h -699.54 v 2721.76 h 709.9 l -5.76,-1514.55 c -0.62,-161.02 64.07,-294.36 194.09,-400.03 130.01,-105.66 309.86,-158.49 539.55,-158.49 50.62,0 148.61,1.72 257.67,11.79 z"
     id="path16"
     style="fill:#ffffff;fill-opacity:1;stroke:#ffffff;stroke-opacity:1" /><path
     class="fil2 str0"
     d="m 6329,11192.53 -7.09,-1842.34 c -0.98,-254.67 -90.73,-462.59 -269.26,-623.78 -187.17,-171.57 -447.56,-258.59 -781.14,-261.07 h -14.71 -13 c -374.9,3.16 -618.72,143.37 -823.47,420.64 l -1.21,-314.31 h -837.19 v 1367.52 l 4.83,1253.34 h 842.46 l -6.59,-1711.77 c -0.42,-112.84 61.63,-211.16 186.22,-294.97 124.58,-83.82 224.42,-125.73 394.75,-125.73 158.97,0 227.95,30.64 322.81,91.88 94.86,61.24 142.5,145.08 142.92,251.45 l 6.89,1789.14 z"
     id="path17"
     style="fill:#ffffff;fill-opacity:1;stroke:#ffffff;stroke-opacity:1" /><path
     class="fil2 str0"
     d="m 6331.24,9814.64 c 1.33,427.61 108.57,764.94 321.65,1012.01 189.09,219.2 438.72,341.16 748.96,365.88 h 253.74 c 330.82,-24.18 591.89,-141.39 783.15,-351.63 216.13,-237.56 323.51,-573.31 322.15,-1007.25 -1.34,-427.61 -109.31,-761.77 -323.9,-1002.5 -214.61,-240.73 -513,-361.1 -895.17,-361.1 -385.23,0 -683.62,118.79 -895.2,356.34 -211.57,237.57 -316.72,566.98 -315.38,988.25 z m 641.72,64.14 c -0.77,-246.26 52.43,-448.19 159.6,-606.57 107.21,-157.58 244.2,-236.76 411.02,-236.76 166.83,0 305.08,74.44 414.75,222.51 109.66,148.87 164.86,341.3 165.59,578.07 0.73,230.43 -51.76,418.89 -157.44,566.18 -105.73,146.49 -242,220.14 -408.82,220.14 -160.74,0 -298.23,-72.85 -412.43,-217.76 -114.2,-145.71 -171.62,-320.71 -172.27,-525.81 z"
     id="path18"
     style="fill:#ffffff;fill-opacity:1;stroke:#ffffff;stroke-opacity:1" /><path
     class="fil1 str3"
     d="m 2151.52,12148.36 16257.12,-0.01"
     id="path19"
     style="fill:#ffffff;fill-opacity:1;stroke:#ffffff;stroke-opacity:1" /><path
     class="fil2 str1"
     d="m 15356.87,11583.74 c -47.88,0 -86.7,38.82 -86.7,86.7 0,47.88 38.82,86.7 86.7,86.7 47.88,0 86.7,-38.82 86.7,-86.7 0,-47.88 -38.82,-86.7 -86.7,-86.7 z"
     id="path20"
     style="fill:#ffffff;fill-opacity:1;stroke:#ffffff;stroke-opacity:1" /><path
     class="fil3"
     d="m 4677.49,12564.63 c -0.06,9.19 -0.38,16.69 -0.96,22.5 H 4360.5 c -0.56,3.39 -0.87,8.23 -0.91,14.52 -0.2,30.49 11.62,57.35 35.33,80.58 23.84,23.24 52.17,34.85 85.25,34.85 57.23,0 96.14,-26.62 116.75,-79.86 h 71.01 c -23.73,88.09 -83.85,132.13 -180.37,132.13 -135.12,0 -202.23,-68.72 -201.35,-206.18 0.38,-59.04 19.17,-107.44 56.36,-145.19 37.19,-37.75 84.75,-56.63 142.65,-56.63 56.81,0 101.93,15.49 135.38,46.46 37.82,35.33 56.79,87.61 56.89,156.82 z m -73.42,-31.22 c -8.3,-81.8 -47.05,-122.69 -116.26,-122.69 -71.98,0 -113.47,40.89 -124.48,122.69 z"
     id="path21"
     style="fill:#ffffff;fill-opacity:1;stroke:#ffffff;stroke-opacity:1" /><path
     id="1"
     class="fil3"
     d="m 5092.24,12648.84 c -0.24,37.27 -16.84,66.67 -49.79,88.21 -32.95,21.53 -74.8,32.3 -125.54,32.3 -64.53,0 -110.51,-11.37 -137.94,-34.12 -23.59,-19.36 -36.34,-50.82 -38.27,-94.38 h 67 c -0.16,25.65 11.57,45.5 35.2,59.53 20.33,12.1 44.83,18.15 73.5,18.15 31.44,0 57.26,-5.2 77.45,-15.61 20.21,-10.52 30.37,-25.89 30.5,-46.22 0.17,-27.22 -18.47,-44.64 -55.78,-52.51 l -108.37,-22.26 c -40.75,-8.71 -69.61,-22.75 -86.59,-42.11 -13.69,-15.97 -20.44,-37.75 -20.26,-65.34 0.22,-34.24 15.7,-61.71 46.44,-82.28 30.75,-20.56 71.48,-30.85 122.23,-30.85 47.42,0 84.59,10.04 111.48,30.13 26.9,20.08 40.77,49.24 41.63,87.48 h -68.67 c -1.39,-40.66 -33.52,-60.98 -96.4,-60.98 -23.15,0 -44.15,5.56 -62.97,16.69 -18.83,11.14 -28.29,25.17 -28.39,42.11 -0.15,23.23 20.14,39.2 60.9,47.92 l 112.35,23.95 c 67.2,14.52 100.62,47.92 100.29,100.19 z"
     style="fill:#ffffff;fill-opacity:1;stroke:#ffffff;stroke-opacity:1" /><path
     id="2"
     class="fil3"
     d="m 5335.52,12765.72 c -20.42,3.39 -40.29,5.08 -59.59,5.08 -24.26,0 -43.8,-6.05 -58.62,-18.15 -13.17,-10.64 -19.7,-22.99 -19.61,-37.02 l 1.85,-287.49 h -60.39 l 0.36,-55.9 h 60.39 l 0.66,-103.09 h 69.49 l -0.66,103.09 h 68.65 l -0.36,55.9 h -68.65 l -1.73,268.61 c -0.08,12.1 10.08,18.15 30.49,18.15 8.27,0 20.96,-1.21 38.07,-3.63 z"
     style="fill:#ffffff;fill-opacity:1;stroke:#ffffff;stroke-opacity:1" /><path
     id="3"
     class="fil3"
     d="m 5754.2,12753.38 h -69.48 l 0.27,-42.11 c -16.69,21.3 -34.71,36.06 -54.06,44.29 -21.02,9.19 -50,13.79 -86.96,13.79 -55.15,0 -93.66,-15.49 -115.52,-46.46 -12.57,-16.94 -18.8,-35.82 -18.66,-56.63 l 1.89,-294.02 h 69.5 l -1.8,279.5 c -0.11,17.43 7.51,32.19 22.87,44.29 15.37,12.1 34.64,18.15 57.79,18.15 34.75,0 64.33,-11.13 88.74,-33.4 24.41,-22.26 36.72,-49.36 36.93,-81.31 l 1.46,-227.23 h 69.48 z"
     style="fill:#ffffff;fill-opacity:1;stroke:#ffffff;stroke-opacity:1" /><path
     id="4"
     class="fil3"
     d="m 6224.92,12753.38 h -60.4 l 0.28,-42.83 c -27.74,24.2 -50.17,40.05 -67.31,47.55 -17.16,7.5 -39.51,11.25 -67.09,11.25 -60.67,0 -107.98,-18.15 -141.94,-54.45 -33.95,-36.3 -50.73,-86.63 -50.32,-151 0.39,-60.5 17.66,-109.38 51.82,-146.65 34.15,-37.27 78.82,-55.9 133.97,-55.9 54.05,0 98.6,18.63 133.65,55.9 l 1.24,-193.11 h 69.5 z m -68.33,-182.22 c 0.63,-98.25 -43.31,-147.37 -131.83,-147.37 -33.5,0 -59.92,13.06 -79.39,39.2 -19.34,26.13 -29.21,59.77 -29.47,100.91 -0.29,45.01 10.24,81.07 31.44,108.17 21.33,27.1 50.89,40.66 88.8,40.66 36.82,0 65.99,-12.59 87.66,-37.76 21.54,-25.16 32.5,-59.77 32.79,-103.81 z"
     style="fill:#ffffff;fill-opacity:1;stroke:#ffffff;stroke-opacity:1" /><path
     id="5"
     class="fil3"
     d="m 6402.37,12299.64 h -69.48 l 0.48,-75.5 h 69.49 z m -2.92,453.74 h -69.48 l 2.45,-381.14 h 69.49 z"
     style="fill:#ffffff;fill-opacity:1;stroke:#ffffff;stroke-opacity:1" /><path
     id="6"
     class="fil3"
     d="m 6882.18,12560.27 c -0.4,61.95 -15.06,110.83 -43.97,146.65 -33.91,41.62 -85.06,62.43 -153.44,62.43 -64.53,0 -113.49,-18.63 -146.9,-55.9 -32.31,-35.81 -48.25,-86.87 -47.82,-153.18 0.39,-61.95 17.66,-110.59 51.81,-145.92 34.14,-35.33 82.65,-53 145.53,-53 62.87,0 111.15,17.67 144.85,53 33.68,35.33 50.34,83.97 49.94,145.92 z m -71.15,0 c 0.27,-43.08 -11.92,-77.44 -36.57,-103.09 -22.46,-23.23 -51.61,-34.85 -87.46,-34.85 -35.85,0 -65.15,11.62 -87.92,34.85 -24.97,25.65 -37.6,60.01 -37.88,103.09 -0.29,45.01 10.78,81.07 33.21,108.17 22.44,27.1 52.68,40.66 90.74,40.66 38.05,0 68.47,-13.56 91.27,-40.66 22.78,-27.1 34.32,-63.16 34.61,-108.17 z"
     style="fill:#ffffff;fill-opacity:1;stroke:#ffffff;stroke-opacity:1" /><path
     id="7"
     class="fil0 str1"
     d="m 4677.49,12564.63 c -0.06,9.19 -0.38,16.69 -0.96,22.5 H 4360.5 c -0.56,3.39 -0.87,8.23 -0.91,14.52 -0.2,30.49 11.62,57.35 35.33,80.58 23.84,23.24 52.17,34.85 85.25,34.85 57.23,0 96.14,-26.62 116.75,-79.86 h 71.01 c -23.73,88.09 -83.85,132.13 -180.37,132.13 -135.12,0 -202.23,-68.72 -201.35,-206.18 0.38,-59.04 19.17,-107.44 56.36,-145.19 37.19,-37.75 84.75,-56.63 142.65,-56.63 56.81,0 101.93,15.49 135.38,46.46 37.82,35.33 56.79,87.61 56.89,156.82 z m -73.42,-31.22 c -8.3,-81.8 -47.05,-122.69 -116.26,-122.69 -71.98,0 -113.47,40.89 -124.48,122.69 z"
     style="fill:#ffffff;fill-opacity:1;stroke:#ffffff;stroke-opacity:1" /><path
     id="8"
     class="fil0 str1"
     d="m 5092.24,12648.84 c -0.24,37.27 -16.84,66.67 -49.79,88.21 -32.95,21.53 -74.8,32.3 -125.54,32.3 -64.53,0 -110.51,-11.37 -137.94,-34.12 -23.59,-19.36 -36.34,-50.82 -38.27,-94.38 h 67 c -0.16,25.65 11.57,45.5 35.2,59.53 20.33,12.1 44.83,18.15 73.5,18.15 31.44,0 57.26,-5.2 77.45,-15.61 20.21,-10.52 30.37,-25.89 30.5,-46.22 0.17,-27.22 -18.47,-44.64 -55.78,-52.51 l -108.37,-22.26 c -40.75,-8.71 -69.61,-22.75 -86.59,-42.11 -13.69,-15.97 -20.44,-37.75 -20.26,-65.34 0.22,-34.24 15.7,-61.71 46.44,-82.28 30.75,-20.56 71.48,-30.85 122.23,-30.85 47.42,0 84.59,10.04 111.48,30.13 26.9,20.08 40.77,49.24 41.63,87.48 h -68.67 c -1.39,-40.66 -33.52,-60.98 -96.4,-60.98 -23.15,0 -44.15,5.56 -62.97,16.69 -18.83,11.14 -28.29,25.17 -28.39,42.11 -0.15,23.23 20.14,39.2 60.9,47.92 l 112.35,23.95 c 67.2,14.52 100.62,47.92 100.29,100.19 z"
     style="fill:#ffffff;fill-opacity:1;stroke:#ffffff;stroke-opacity:1" /><path
     id="9"
     class="fil0 str1"
     d="m 5335.52,12765.72 c -20.42,3.39 -40.29,5.08 -59.59,5.08 -24.26,0 -43.8,-6.05 -58.62,-18.15 -13.17,-10.64 -19.7,-22.99 -19.61,-37.02 l 1.85,-287.49 h -60.39 l 0.36,-55.9 h 60.39 l 0.66,-103.09 h 69.49 l -0.66,103.09 h 68.65 l -0.36,55.9 h -68.65 l -1.73,268.61 c -0.08,12.1 10.08,18.15 30.49,18.15 8.27,0 20.96,-1.21 38.07,-3.63 z"
     style="fill:#ffffff;fill-opacity:1;stroke:#ffffff;stroke-opacity:1" /><path
     id="10"
     class="fil0 str1"
     d="m 5754.2,12753.38 h -69.48 l 0.27,-42.11 c -16.69,21.3 -34.71,36.06 -54.06,44.29 -21.02,9.19 -50,13.79 -86.96,13.79 -55.15,0 -93.66,-15.49 -115.52,-46.46 -12.57,-16.94 -18.8,-35.82 -18.66,-56.63 l 1.89,-294.02 h 69.5 l -1.8,279.5 c -0.11,17.43 7.51,32.19 22.87,44.29 15.37,12.1 34.64,18.15 57.79,18.15 34.75,0 64.33,-11.13 88.74,-33.4 24.41,-22.26 36.72,-49.36 36.93,-81.31 l 1.46,-227.23 h 69.48 z"
     style="fill:#ffffff;fill-opacity:1;stroke:#ffffff;stroke-opacity:1" /><path
     id="11"
     class="fil0 str1"
     d="m 6224.92,12753.38 h -60.4 l 0.28,-42.83 c -27.74,24.2 -50.17,40.05 -67.31,47.55 -17.16,7.5 -39.51,11.25 -67.09,11.25 -60.67,0 -107.98,-18.15 -141.94,-54.45 -33.95,-36.3 -50.73,-86.63 -50.32,-151 0.39,-60.5 17.66,-109.38 51.82,-146.65 34.15,-37.27 78.82,-55.9 133.97,-55.9 54.05,0 98.6,18.63 133.65,55.9 l 1.24,-193.11 h 69.5 z m -68.33,-182.22 c 0.63,-98.25 -43.31,-147.37 -131.83,-147.37 -33.5,0 -59.92,13.06 -79.39,39.2 -19.34,26.13 -29.21,59.77 -29.47,100.91 -0.29,45.01 10.24,81.07 31.44,108.17 21.33,27.1 50.89,40.66 88.8,40.66 36.82,0 65.99,-12.59 87.66,-37.76 21.54,-25.16 32.5,-59.77 32.79,-103.81 z"
     style="fill:#ffffff;fill-opacity:1;stroke:#ffffff;stroke-opacity:1" /><path
     id="12"
     class="fil0 str1"
     d="m 6402.37,12299.64 h -69.48 l 0.48,-75.5 h 69.49 z m -2.92,453.74 h -69.48 l 2.45,-381.14 h 69.49 z"
     style="fill:#ffffff;fill-opacity:1;stroke:#ffffff;stroke-opacity:1" /><path
     id="13"
     class="fil0 str1"
     d="m 6882.18,12560.27 c -0.4,61.95 -15.06,110.83 -43.97,146.65 -33.91,41.62 -85.06,62.43 -153.44,62.43 -64.53,0 -113.49,-18.63 -146.9,-55.9 -32.31,-35.81 -48.25,-86.87 -47.82,-153.18 0.39,-61.95 17.66,-110.59 51.81,-145.92 34.14,-35.33 82.65,-53 145.53,-53 62.87,0 111.15,17.67 144.85,53 33.68,35.33 50.34,83.97 49.94,145.92 z m -71.15,0 c 0.27,-43.08 -11.92,-77.44 -36.57,-103.09 -22.46,-23.23 -51.61,-34.85 -87.46,-34.85 -35.85,0 -65.15,11.62 -87.92,34.85 -24.97,25.65 -37.6,60.01 -37.88,103.09 -0.29,45.01 10.78,81.07 33.21,108.17 22.44,27.1 52.68,40.66 90.74,40.66 38.05,0 68.47,-13.56 91.27,-40.66 22.78,-27.1 34.32,-63.16 34.61,-108.17 z"
     style="fill:#ffffff;fill-opacity:1;stroke:#ffffff;stroke-opacity:1" /></g>
  
  
  
  
  
  
  
  
  
  
  
  
  
  
  
  
  
  
  
  
  
  
  
  
  
  <path
   class="fil0 str4"
   d="m 12783.15,118658.04 h -1803.985 l -3.788,-1531.09 c -648.663,1029.5 -1422.5549,1544.26 -2619.8711,1544.26 -1066.9464,0 -1671.2708,-306.95 -2267.9299,-943.26 -557.2506,-594.28 -840.2946,-1354.96 -843.3307,-2289.81 l -22.2143,-6791.33 h 2517.8179 l 21.583,6567.62 c 1.2926,390.44 150.51,698.27 447.6221,923.04 297.0821,224.77 441.5801,350.46 939.4924,350.46 533.4732,0 846.1864,-153.85 1236.3936,-461.5 390.208,-307.66 584.576,-668.61 583.253,-1082.8 l -20.651,-6283.6 h 1835.608"
   id="path22" /><path
   class="fil0 str4"
   d="m 5174.9272,111083.58 c -327.8334,-36.97 -567.7115,-55.4 -719.8747,-55.4 -690.446,0 -1231.0735,193.93 -1621.8824,581.8 -390.8389,387.9 -585.2964,877.37 -583.4327,1468.46 l 17.3145,5559.71 -2133.95287,19.93 -31.20219,-10011.19 2133.95286,-19.93 6.0421,1939.43 c 173.6861,-591.09 523.2227,-1089.77 1048.5196,-1496.14 525.2969,-406.33 1051.8864,-431.62 1578.4758,-431.62 58.5267,0 157.9949,12.34 298.4949,36.93 z"
   id="path23" /><path
   class="fil0 str4"
   d="m -15457.382,109037.25 h 2532.427 l 3.667,1153.79 c 622.511,-1029.53 1365.261,-1544.3 2514.391,-1544.3 1023.9911,0 1821.4203,319.52 2392.3181,958.54 536.6595,591.71 806.4472,1354.96 809.363,2289.81 l 21.3425,6762.99 h -2563.4488 l -20.7113,-6567.7 c -1.2625,-390.47 -144.4679,-698.23 -429.6165,-923.03 -285.148,-224.81 -492.501,-337.28 -970.364,-337.28 -511.98,0 -812.128,153.84 -1186.614,461.53 -374.517,307.66 -561.039,668.58 -559.776,1082.8 l 19.809,6283.68 h -2532.457 z"
   id="path24" /><path
   class="fil0 str4"
   d="m -1788.3303,113678.55 c -2.2244,-869.15 -168.1852,-1575.54 -497.8221,-2122.02 -329.637,-543.54 -745.2152,-816.8 -1246.6746,-816.8 -501.4894,0 -913.3402,290.66 -1235.5223,869.11 -322.1821,581.39 -482.1008,1322.65 -479.8163,2226.64 1.984,752.89 174.5579,1395.29 517.8721,1930.18 343.2842,531.94 756.5478,799.36 1239.7909,799.36 501.4593,0 911.0857,-270.35 1228.849,-808.1 317.7032,-540.68 475.4876,-1232.49 473.3233,-2078.37 z"
   id="path25" /><path
   class="fil0 str4"
   d="m 126.36561,113669.81 c 4.11821,1592.94 -318.66509,2825.43 -968.34988,3697.48 -649.68483,872.05 -1567.17333,1308.08 -2752.49563,1308.08 -1103.2587,0 -1975.1463,-453.46 -2615.753,-1360.39 -640.5767,-906.96 -962.9091,-2145.25 -966.9371,-3714.95 -3.9679,-1546.43 312.082,-2755.65 948.0594,-3627.74 636.0076,-872.01 1532.9652,-1308.07 2690.9329,-1308.07 1148.8597,0 2045.8173,441.86 2690.90289,1325.55 645.05556,883.69 969.61239,2110.34 973.64042,3680.04 z"
   id="path26" /><path
   class="fil1 str1"
   d="m -19751.831,108646.96 50508.401,-0.11"
   id="path27" /><path
   class="fil1 str2"
   d="M -19751.831,118658.08 H 29116.922"
   id="path28" /><path
   class="fil1 str1"
   d="M -19741.34,124843.31 H 29127.413"
   id="path29" /><path
   class="fil1 str1"
   d="m 26446.28,126905.01 v -26505.2"
   id="path30" /><path
   class="fil1 str3"
   d="m -15441.541,126905.01 v -26505.2"
   id="path31" /><path
   class="fil1 str1"
   d="M 13461.422,122166.77 V 100399.85"
   id="path32" /><path
   class="fil1 str1"
   d="M 12783.15,122166.77 V 100399.85"
   id="path33" /><path
   class="fil1 str4"
   d="m 13461.422,108646.93 v 10011.11 h 2136.448 l -19.449,-6195.66 c -1.323,-423.91 153.967,-799.44 465.838,-1126.48 311.932,-327.03 688.102,-490.57 1128.509,-490.57 452.041,0 805.936,127.2 1061.716,381.55 220.88,218.05 331.802,478.46 332.733,781.27 l 20.922,6649.89 h 2433.921 l -19.419,-6180.5 c -1.262,-399.72 165.66,-772.2 500.678,-1114.4 335.018,-345.17 699.584,-517.81 1093.639,-517.81 452.011,0 811.708,127.2 1079.121,381.55 209.187,193.82 314.126,390.65 314.787,596.55 l 21.463,6834.61 h 2433.921 l -22.305,-7104.09 c -3.066,-981.14 -306.761,-1720.02 -910.995,-2216.65 -532.03,-458.01 -1252.687,-688.18 -2162.059,-690.42 h -13.256 -11.333 c -1118.77,3.24 -1988.583,481.7 -2609.35,1435.39 -695.316,-952.74 -1578.747,-1431.16 -2650.202,-1435.35 h -14.188 -13.377 c -492.742,2.02 -919.683,117.1 -1280.762,345.17 -364.387,230.13 -760.035,648.02 -1186.946,1253.68 l 8.717,-1598.85 z"
   id="path34" /><path
   class="fil1 str4"
   d="m 5229.6061,111071.46 -7.545,-2408.01 c -74.0075,-12.96 -191.3013,-10.39 -242.5534,-16.52 h -472.8724 c -405.7787,23.35 -811.3771,110.16 -1216.2239,423.32 -525.2969,406.37 -874.8335,905.05 -1048.5196,1496.14 l -5.982,-1919.46 H 133.09903 v 9991.22 H 2267.0519 l -17.3145,-5559.71 c -1.8637,-591.09 192.5938,-1080.56 583.4327,-1468.46 390.8089,-387.87 931.4364,-581.8 1621.8824,-581.8 152.1632,0 446.7203,6.32 774.5536,43.28 z"
   id="path35" /><path
   class="fil1 str4"
   d="m -7183.8734,118658.08 -21.3124,-6762.99 c -2.9459,-934.85 -272.7336,-1698.1 -809.3931,-2289.81 -562.6313,-629.81 -1345.3613,-949.25 -2348.1001,-958.35 h -44.218 -39.078 c -1126.946,11.6 -1859.866,526.29 -2475.343,1544.11 l -3.637,-1153.79 h -2516.586 v 5019.99 l 14.519,4600.84 h 2532.427 l -19.809,-6283.68 c -1.263,-414.22 185.259,-775.14 559.776,-1082.8 374.486,-307.69 674.604,-461.53 1186.614,-461.53 477.863,0 685.216,112.47 970.364,337.28 285.1486,224.8 428.354,532.56 429.6165,923.03 l 20.7113,6567.7 z"
   id="path36" /><path
   class="fil1 str4"
   d="m -7177.1399,113600.03 c 3.9979,1569.7 326.3604,2807.99 966.8769,3714.95 568.4028,804.66 1318.7883,1252.36 2251.3669,1343.1 h 762.7401 c 994.4419,-88.76 1779.2159,-519.02 2354.14167,-1290.79 649.68479,-872.05 972.46809,-2104.54 968.37994,-3697.48 -4.02803,-1569.7 -328.58486,-2796.35 -973.64042,-3680.04 -645.11569,-883.69 -1542.07329,-1325.55 -2690.87279,-1325.55 -1157.9978,0 -2054.9554,436.06 -2690.963,1308.07 -635.9774,872.09 -952.0574,2081.31 -948.0293,3627.74 z m 1929.0044,235.45 c -2.3146,-903.99 157.6041,-1645.25 479.7561,-2226.64 322.2723,-578.45 734.063,-869.11 1235.5223,-869.11 501.4895,0 917.0677,273.26 1246.7347,816.8 329.637,546.48 495.5677,1252.87 497.762,2122.02 2.1944,845.88 -155.59,1537.69 -473.2631,2078.37 -317.8234,537.75 -727.4498,808.1 -1228.9092,808.1 -483.183,0 -896.4766,-267.42 -1239.7608,-799.36 -343.2841,-534.89 -515.8881,-1177.29 -517.842,-1930.18 z"
   id="path37" /><path
   class="fil1 str3"
   d="M -19741.34,122166.8 H 29127.413"
   id="path38" /><path
   class="fil1 str5"
   d="m 19953.821,120094.16 c -143.927,0 -260.62,142.5 -260.62,318.26 0,175.76 116.693,318.27 260.62,318.27 143.927,0 260.619,-142.51 260.619,-318.27 0,-175.76 -116.692,-318.26 -260.619,-318.26 z"
   id="path39" /><path
   class="fil0 str1"
   d="m -12148.297,123694.88 c -0.181,33.73 -1.143,61.26 -2.886,82.59 h -949.983 c -1.684,12.44 -2.615,30.21 -2.736,53.3 -0.601,111.93 34.93,210.53 106.202,295.8 71.663,85.31 156.822,127.93 256.261,127.93 172.033,0 288.996,-97.72 350.949,-293.16 h 213.456 c -71.333,323.37 -252.053,485.04 -542.191,485.04 -406.17,0 -607.902,-252.27 -605.256,-756.86 1.142,-216.73 57.625,-394.4 169.417,-532.98 111.793,-138.57 254.758,-207.88 428.805,-207.88 170.77,0 306.401,56.86 406.951,170.55 113.687,129.69 170.71,321.61 171.011,575.67 z m -220.7,-114.61 c -24.95,-300.28 -141.432,-450.38 -349.477,-450.38 -216.371,0 -341.089,150.1 -374.185,450.38 z"
   id="path40"
   style="fill:#000000;fill-opacity:1" /><path
   id="path41"
   class="fil0 str1"
   d="m -10901.563,124004 c -0.721,136.81 -50.62,244.74 -149.668,323.81 -99.047,79.03 -224.848,118.57 -377.372,118.57 -193.976,0 -332.192,-41.74 -414.646,-125.25 -70.912,-71.07 -109.238,-186.56 -115.04,-346.46 h 201.402 c -0.481,94.16 34.779,167.02 105.811,218.53 61.112,44.41 134.758,66.62 220.94,66.62 94.508,0 172.123,-19.09 232.814,-57.3 60.751,-38.62 91.292,-95.04 91.683,-169.67 0.511,-99.92 -55.521,-163.86 -167.674,-192.75 l -325.76,-81.72 c -122.494,-31.97 -209.247,-83.51 -260.288,-154.58 -41.152,-58.62 -61.443,-138.57 -60.902,-239.85 0.662,-125.69 47.194,-226.53 139.598,-302.04 92.435,-75.47 214.869,-113.25 367.423,-113.25 142.544,0 254.276,36.86 335.108,110.61 80.861,73.71 122.554,180.75 125.139,321.12 h -206.421 c -4.179,-149.25 -100.761,-223.85 -289.778,-223.85 -69.589,0 -132.714,20.41 -189.287,61.27 -56.603,40.89 -85.04,92.4 -85.34,154.58 -0.451,85.27 60.54,143.9 183.065,175.91 l 337.723,87.92 c 202.002,53.3 302.462,175.9 301.47,367.78 z"
   style="fill:#000000;fill-opacity:1" /><path
   id="path42"
   class="fil0 str1"
   d="m -10170.265,124433.05 c -61.382,12.44 -121.111,18.65 -179.127,18.65 -72.925,0 -131.662,-22.21 -176.211,-66.63 -39.589,-39.06 -59.218,-84.39 -58.948,-135.89 l 5.561,-1055.34 h -181.531 l 1.082,-205.2 h 181.531 l 1.984,-378.43 h 208.887 l -1.984,378.43 h 206.361 l -1.082,205.2 h -206.361 l -5.201,986.03 c -0.24,44.42 30.301,66.63 91.653,66.63 24.859,0 63.005,-4.44 114.438,-13.33 z"
   style="fill:#000000;fill-opacity:1" /><path
   id="path43"
   class="fil0 str1"
   d="m -8911.7169,124387.75 h -208.8562 l 0.8116,-154.58 c -50.17,78.19 -104.3379,132.37 -162.5039,162.58 -63.1859,33.74 -150.2995,50.63 -261.4009,50.63 -165.7804,0 -281.5411,-56.87 -347.2521,-170.55 -37.7853,-62.19 -56.5126,-131.49 -56.0918,-207.88 l 5.6814,-1079.31 h 208.9163 l -5.4108,1026.01 c -0.3306,63.98 22.575,118.16 68.747,162.58 46.2021,44.42 104.1276,66.62 173.7163,66.62 104.4581,0 193.3753,-40.85 266.7516,-122.6 73.3762,-81.72 110.38,-181.2 111.0112,-298.48 l 4.3888,-834.13 h 208.8562 z"
   style="fill:#000000;fill-opacity:1" /><path
   id="path44"
   class="fil0 str1"
   d="m -7496.7369,124387.75 h -181.5618 l 0.8417,-157.22 c -83.3862,88.83 -150.8106,147.02 -202.3333,174.55 -51.5828,27.53 -118.7667,41.3 -201.6719,41.3 -182.3735,0 -324.5869,-66.63 -426.6703,-199.88 -102.0534,-133.26 -152.494,-318.01 -151.2615,-554.3 1.1723,-222.09 53.0858,-401.52 155.7704,-538.34 102.6546,-136.81 236.9322,-205.2 402.7126,-205.2 162.4738,0 296.3907,68.39 401.7507,205.2 l 3.7274,-708.88 h 208.9164 z m -205.3993,-668.9 c 1.8937,-360.67 -130.1895,-540.98 -396.2798,-540.98 -100.7007,0 -180.119,47.94 -238.6456,143.9 -58.1359,95.92 -87.805,219.41 -88.5866,370.43 -0.8717,165.22 30.7814,297.59 94.5084,397.07 64.1178,99.48 152.9749,149.26 266.932,149.26 110.6806,0 198.3653,-46.21 263.5051,-138.61 64.7491,-92.36 97.6947,-219.41 98.5665,-381.07 z"
   style="fill:#000000;fill-opacity:1" /><path
   id="path45"
   class="fil0 str1"
   d="m -6963.3238,122722.13 h -208.8563 l 1.4429,-277.15 h 208.8863 z m -8.7775,1665.62 h -208.8562 l 7.3646,-1399.11 h 208.8863 z"
   style="fill:#000000;fill-opacity:1" /><path
   id="path46"
   class="fil0 str1"
   d="m -5521.0194,123678.87 c -1.2024,227.41 -45.2702,406.84 -132.1734,538.33 -101.9331,152.78 -255.6896,229.18 -461.2392,229.18 -193.9766,0 -341.1499,-68.39 -441.5801,-205.21 -97.1235,-131.45 -145.039,-318.88 -143.7464,-562.3 1.1723,-227.41 53.0858,-405.96 155.7403,-535.65 102.6246,-129.69 248.4452,-194.56 437.4619,-194.56 188.9866,0 334.1159,64.87 435.4178,194.56 101.2417,129.69 151.3215,308.24 150.1191,535.65 z m -213.8762,0 c 0.8116,-158.14 -35.8314,-284.27 -109.9291,-378.43 -67.5145,-85.27 -155.1392,-127.93 -262.904,-127.93 -107.7647,0 -195.8403,42.66 -264.2867,127.93 -75.0596,94.16 -113.0252,220.29 -113.8669,378.43 -0.8717,165.23 32.4046,297.6 99.829,397.08 67.4544,99.48 158.3556,149.26 272.7636,149.26 114.3779,0 205.8202,-49.78 274.3567,-149.26 68.4765,-99.48 103.1657,-231.85 104.0374,-397.08 z"
   style="fill:#000000;fill-opacity:1" /><path
   class="fil1 str4"
   d="m 12783.15,108660 v 9998.04"
   id="path47" />
 <g
   style="clip-rule:evenodd;fill-rule:evenodd;image-rendering:optimizeQuality;shape-rendering:geometricPrecision;text-rendering:geometricPrecision"
   id="g50"
   transform="matrix(26.458333,0,0,26.458333,-94142.004,93842.03)"><g
     id="Capa_x0020_1-4">
  <metadata
   id="CorelCorpID_0Corel-Layer-8" />
  <path
   class="fil0 str0"
   d="m 47.66,20.31 c -0.71,-0.07 -1.24,-0.1 -1.57,-0.1 -1.5,0 -2.67,0.35 -3.52,1.04 -0.85,0.69 -1.27,1.56 -1.27,2.61 l 0.04,9.9 -4.64,0.03 -0.07,-17.82 4.64,-0.03 0.01,3.45 c 0.38,-1.05 1.14,-1.94 2.28,-2.66 1.14,-0.73 2.29,-0.77 3.43,-0.77 0.13,0 0.35,0.02 0.65,0.06 z"
   id="path1-8" />
  <path
   class="fil0 str0"
   d="m 2.81,16.67 h 5.5 l 0.01,2.05 c 1.35,-1.83 2.97,-2.75 5.47,-2.75 2.22,0 3.96,0.57 5.2,1.71 1.16,1.05 1.75,2.41 1.76,4.07 l 0.04,12.04 H 15.22 L 15.18,22.1 c -0.01,-0.69 -0.32,-1.24 -0.94,-1.64 -0.62,-0.4 -1.07,-0.6 -2.11,-0.6 -1.11,0 -1.76,0.27 -2.58,0.82 -0.81,0.55 -1.22,1.19 -1.21,1.93 L 8.38,33.79 H 2.87 Z"
   id="path2-2" />
  <path
   class="fil0 str0"
   d="m 32.52,24.93 c 0,-1.55 -0.36,-2.8 -1.08,-3.78 -0.72,-0.97 -1.62,-1.45 -2.71,-1.45 -1.09,0 -1.99,0.52 -2.69,1.55 -0.7,1.03 -1.04,2.35 -1.04,3.96 0.01,1.34 0.38,2.48 1.13,3.43 0.74,0.95 1.64,1.43 2.69,1.43 1.09,0 1.98,-0.48 2.67,-1.44 0.69,-0.96 1.04,-2.19 1.03,-3.7 z"
   id="path3-4" />
  <path
   class="fil0 str0"
   d="m 36.68,24.91 c 0.01,2.84 -0.69,5.03 -2.1,6.59 -1.41,1.55 -3.41,2.32 -5.98,2.32 -2.4,0 -4.3,-0.8 -5.69,-2.42 -1.39,-1.61 -2.09,-3.82 -2.1,-6.61 -0.01,-2.75 0.68,-4.91 2.06,-6.46 1.38,-1.55 3.33,-2.33 5.85,-2.33 2.5,0 4.45,0.79 5.85,2.36 1.4,1.58 2.11,3.76 2.11,6.55 z"
   id="path4-5" />
  <path
   class="fil1 str0"
   d="M 47.78,20.29 47.76,16 C 47.6,15.98 47.34,15.98 47.23,15.97 h -1.02 c -0.89,0.04 -1.77,0.2 -2.65,0.76 -1.14,0.72 -1.9,1.61 -2.28,2.66 L 41.27,15.97 H 36.7 v 17.79 h 4.64 l -0.04,-9.9 c 0,-1.05 0.42,-1.92 1.27,-2.61 0.85,-0.69 2.02,-1.04 3.52,-1.04 0.33,0 0.97,0.01 1.69,0.08 z"
   id="path5-5" />
  <path
   class="fil1 str0"
   d="M 20.79,33.79 20.75,21.75 c -0.01,-1.66 -0.6,-3.02 -1.76,-4.07 -1.23,-1.12 -2.93,-1.69 -5.11,-1.71 H 13.79 13.7 c -2.45,0.02 -4.04,0.94 -5.38,2.75 L 8.31,16.67 H 2.84 v 8.93 l 0.03,8.19 H 8.38 L 8.34,22.61 c -0.01,-0.74 0.4,-1.38 1.21,-1.93 0.82,-0.55 1.47,-0.82 2.58,-0.82 1.04,0 1.49,0.2 2.11,0.6 0.62,0.4 0.93,0.95 0.94,1.64 l 0.04,11.69 z"
   id="path6-1" />
  <path
   class="fil1 str0"
   d="m 20.81,24.79 c 0.01,2.79 0.71,5 2.1,6.61 1.23,1.43 2.87,2.23 4.89,2.39 h 1.66 c 2.16,-0.15 3.87,-0.92 5.12,-2.29 1.41,-1.56 2.11,-3.75 2.1,-6.59 0,-2.79 -0.71,-4.97 -2.11,-6.55 C 33.17,16.79 31.22,16 28.72,16 c -2.52,0 -4.47,0.78 -5.85,2.33 -1.38,1.55 -2.07,3.71 -2.06,6.46 z M 25,25.21 c 0,-1.61 0.34,-2.93 1.04,-3.96 0.7,-1.03 1.6,-1.55 2.69,-1.55 1.09,0 1.99,0.48 2.71,1.45 0.72,0.98 1.08,2.23 1.08,3.78 0.01,1.51 -0.34,2.74 -1.03,3.7 -0.69,0.96 -1.58,1.44 -2.67,1.44 -1.05,0 -1.95,-0.48 -2.69,-1.43 C 25.38,27.69 25.01,26.55 25,25.21 Z"
   id="path7-7" />
  <ellipse
   class="fil2 str0"
   cx="25"
   cy="25.209999"
   rx="24.5"
   ry="24.290001"
   id="ellipse7" />
 </g></g><g
   style="clip-rule:evenodd;fill-rule:evenodd;image-rendering:optimizeQuality;shape-rendering:geometricPrecision;text-rendering:geometricPrecision"
   id="g50-9"
   transform="matrix(200.39683,0,0,202.10587,-105760.13,107267.22)"><g
     id="Capa_x0020_1-4-4">
  <metadata
   id="CorelCorpID_0Corel-Layer-8-8" />
  <path
   class="fil0 str0"
   d="m 47.66,20.31 c -0.71,-0.07 -1.24,-0.1 -1.57,-0.1 -1.5,0 -2.67,0.35 -3.52,1.04 -0.85,0.69 -1.27,1.56 -1.27,2.61 l 0.04,9.9 -4.64,0.03 -0.07,-17.82 4.64,-0.03 0.01,3.45 c 0.38,-1.05 1.14,-1.94 2.28,-2.66 1.14,-0.73 2.29,-0.77 3.43,-0.77 0.13,0 0.35,0.02 0.65,0.06 z"
   id="path1-8-8"
   style="fill:none;fill-rule:nonzero;stroke:#ffffff;stroke-width:0.9;stroke-miterlimit:22.9256;stroke-opacity:1" />
  <path
   class="fil0 str0"
   d="m 2.81,16.67 h 5.5 l 0.01,2.05 c 1.35,-1.83 2.97,-2.75 5.47,-2.75 2.22,0 3.96,0.57 5.2,1.71 1.16,1.05 1.75,2.41 1.76,4.07 l 0.04,12.04 H 15.22 L 15.18,22.1 c -0.01,-0.69 -0.32,-1.24 -0.94,-1.64 -0.62,-0.4 -1.07,-0.6 -2.11,-0.6 -1.11,0 -1.76,0.27 -2.58,0.82 -0.81,0.55 -1.22,1.19 -1.21,1.93 L 8.38,33.79 H 2.87 Z"
   id="path2-2-2"
   style="fill:none;fill-rule:nonzero;stroke:#ffffff;stroke-width:0.9;stroke-miterlimit:22.9256;stroke-opacity:1" />
  <path
   class="fil0 str0"
   d="m 32.52,24.93 c 0,-1.55 -0.36,-2.8 -1.08,-3.78 -0.72,-0.97 -1.62,-1.45 -2.71,-1.45 -1.09,0 -1.99,0.52 -2.69,1.55 -0.7,1.03 -1.04,2.35 -1.04,3.96 0.01,1.34 0.38,2.48 1.13,3.43 0.74,0.95 1.64,1.43 2.69,1.43 1.09,0 1.98,-0.48 2.67,-1.44 0.69,-0.96 1.04,-2.19 1.03,-3.7 z"
   id="path3-4-4"
   style="fill:none;fill-rule:nonzero;stroke:#ffffff;stroke-width:0.9;stroke-miterlimit:22.9256;stroke-opacity:1" />
  <path
   class="fil0 str0"
   d="m 36.68,24.91 c 0.01,2.84 -0.69,5.03 -2.1,6.59 -1.41,1.55 -3.41,2.32 -5.98,2.32 -2.4,0 -4.3,-0.8 -5.69,-2.42 -1.39,-1.61 -2.09,-3.82 -2.1,-6.61 -0.01,-2.75 0.68,-4.91 2.06,-6.46 1.38,-1.55 3.33,-2.33 5.85,-2.33 2.5,0 4.45,0.79 5.85,2.36 1.4,1.58 2.11,3.76 2.11,6.55 z"
   id="path4-5-5"
   style="fill:none;fill-rule:nonzero;stroke:#ffffff;stroke-width:0.9;stroke-miterlimit:22.9256;stroke-opacity:1" />
  <path
   class="fil1 str0"
   d="M 47.78,20.29 47.76,16 C 47.6,15.98 47.34,15.98 47.23,15.97 h -1.02 c -0.89,0.04 -1.77,0.2 -2.65,0.76 -1.14,0.72 -1.9,1.61 -2.28,2.66 L 41.27,15.97 H 36.7 v 17.79 h 4.64 l -0.04,-9.9 c 0,-1.05 0.42,-1.92 1.27,-2.61 0.85,-0.69 2.02,-1.04 3.52,-1.04 0.33,0 0.97,0.01 1.69,0.08 z"
   id="path5-5-5"
   style="fill:#282829;stroke:#ffffff;stroke-width:0.9;stroke-miterlimit:22.9256;stroke-opacity:1" />
  <path
   class="fil1 str0"
   d="M 20.79,33.79 20.75,21.75 c -0.01,-1.66 -0.6,-3.02 -1.76,-4.07 -1.23,-1.12 -2.93,-1.69 -5.11,-1.71 H 13.79 13.7 c -2.45,0.02 -4.04,0.94 -5.38,2.75 L 8.31,16.67 H 2.84 v 8.93 l 0.03,8.19 H 8.38 L 8.34,22.61 c -0.01,-0.74 0.4,-1.38 1.21,-1.93 0.82,-0.55 1.47,-0.82 2.58,-0.82 1.04,0 1.49,0.2 2.11,0.6 0.62,0.4 0.93,0.95 0.94,1.64 l 0.04,11.69 z"
   id="path6-1-1"
   style="fill:#282829;stroke:#ffffff;stroke-width:0.9;stroke-miterlimit:22.9256;stroke-opacity:1" />
  <path
   class="fil1 str0"
   d="m 20.81,24.79 c 0.01,2.79 0.71,5 2.1,6.61 1.23,1.43 2.87,2.23 4.89,2.39 h 1.66 c 2.16,-0.15 3.87,-0.92 5.12,-2.29 1.41,-1.56 2.11,-3.75 2.1,-6.59 0,-2.79 -0.71,-4.97 -2.11,-6.55 C 33.17,16.79 31.22,16 28.72,16 c -2.52,0 -4.47,0.78 -5.85,2.33 -1.38,1.55 -2.07,3.71 -2.06,6.46 z M 25,25.21 c 0,-1.61 0.34,-2.93 1.04,-3.96 0.7,-1.03 1.6,-1.55 2.69,-1.55 1.09,0 1.99,0.48 2.71,1.45 0.72,0.98 1.08,2.23 1.08,3.78 0.01,1.51 -0.34,2.74 -1.03,3.7 -0.69,0.96 -1.58,1.44 -2.67,1.44 -1.05,0 -1.95,-0.48 -2.69,-1.43 C 25.38,27.69 25.01,26.55 25,25.21 Z"
   id="path7-7-7"
   style="fill:#282829;stroke:#ffffff;stroke-width:0.9;stroke-miterlimit:22.9256;stroke-opacity:1" />
  <ellipse
   class="fil2 str0"
   cx="25"
   cy="25.209999"
   rx="24.5"
   ry="24.290001"
   id="ellipse7-1"
   style="fill:none;fill-opacity:1;stroke:#ffffff;stroke-width:0.9;stroke-miterlimit:22.9256;stroke-opacity:1" />
 </g></g></g>
</svg>
