<?xml version="1.0" encoding="UTF-8" standalone="no"?>
<!-- Creator: CorelDRAW 2019 (64-Bit) -->

<svg
   xml:space="preserve"
   width="528.4306mm"
   height="269.69006mm"
   version="1.0"
   style="clip-rule:evenodd;fill-rule:evenodd;image-rendering:optimizeQuality;shape-rendering:geometricPrecision;text-rendering:geometricPrecision"
   viewBox="0 0 52843.061 26969.006"
   id="svg47"
   sodipodi:docname="Diseño de Marca Fer.svg"
   inkscape:version="1.4 (86a8ad7, 2024-10-11)"
   xmlns:inkscape="http://www.inkscape.org/namespaces/inkscape"
   xmlns:sodipodi="http://sodipodi.sourceforge.net/DTD/sodipodi-0.dtd"
   xmlns="http://www.w3.org/2000/svg"
   xmlns:svg="http://www.w3.org/2000/svg"><sodipodi:namedview
   id="namedview47"
   pagecolor="#ffffff"
   bordercolor="#000000"
   borderopacity="0.25"
   inkscape:showpageshadow="2"
   inkscape:pageopacity="0.0"
   inkscape:pagecheckerboard="0"
   inkscape:deskcolor="#d1d1d1"
   inkscape:document-units="mm"
   inkscape:zoom="0.50835205"
   inkscape:cx="-2597.6093"
   inkscape:cy="673.74569"
   inkscape:window-width="1920"
   inkscape:window-height="1009"
   inkscape:window-x="-8"
   inkscape:window-y="-8"
   inkscape:window-maximized="1"
   inkscape:current-layer="Capa_x0020_1"
   showguides="true"><inkscape:page
     x="0"
     y="0"
     width="52843.062"
     height="26969.006"
     id="page49"
     margin="12699.532 0 10721.736"
     bleed="0"
     inkscape:label="Norum Negro"
     inkscape:export-filename="Norum Negro.png"
     inkscape:export-xdpi="96"
     inkscape:export-ydpi="96" /><inkscape:page
     x="-60855.77"
     y="-18.563177"
     width="52916.664"
     height="26987.566"
     id="page50"
     margin="0"
     bleed="0"
     inkscape:label="Norum Blanco"
     inkscape:export-filename="Norum Negro.png"
     inkscape:export-xdpi="96"
     inkscape:export-ydpi="96" /><inkscape:page
     x="-73259.648"
     y="-6176.1436"
     width="1322.9166"
     height="1322.9167"
     id="page51"
     margin="0"
     bleed="0"
     inkscape:label="Favicon"
     inkscape:export-filename="Favicon.png"
     inkscape:export-xdpi="96"
     inkscape:export-ydpi="96" /><inkscape:page
     x="-84867.656"
     y="7338.3779"
     width="10000"
     height="10000"
     id="page1"
     margin="0"
     bleed="0"
     inkscape:label="Icono pequeño Blanco"
     inkscape:export-filename="Icono pequeño negro.png"
     inkscape:export-xdpi="96"
     inkscape:export-ydpi="96" /><sodipodi:guide
     position="-41145.725,27224.408"
     orientation="0,-1"
     id="guide6"
     inkscape:locked="false" /><sodipodi:guide
     position="-43353.903,234.21457"
     orientation="0,-1"
     id="guide7"
     inkscape:locked="false" /><inkscape:page
     x="-85235.688"
     y="22081.783"
     width="10000"
     height="10000"
     id="page7"
     margin="0"
     bleed="0"
     inkscape:label="Icono pequeño negro" /></sodipodi:namedview>
 <defs
   id="defs1">
  <style
   type="text/css"
   id="style1">
   <![CDATA[
    .str2 {stroke:#373435;stroke-width:26.46;stroke-miterlimit:22.9256}
    .str4 {stroke:#373435;stroke-width:105.83;stroke-miterlimit:22.9256}
    .str0 {stroke:#373435;stroke-width:70.56;stroke-miterlimit:22.9256}
    .str3 {stroke:#373435;stroke-width:52.92;stroke-miterlimit:22.9256}
    .str5 {stroke:#373435;stroke-width:35.28;stroke-miterlimit:22.9256}
    .str1 {stroke:#373435;stroke-width:17.64;stroke-miterlimit:22.9256}
    .fil1 {fill:none}
    .fil0 {fill:none;fill-rule:nonzero}
    .fil2 {fill:#282829}
    .fil3 {fill:#373435;fill-rule:nonzero}
   ]]>
  </style>
 <style
   type="text/css"
   id="style1-9">
   <![CDATA[
    .str0 {stroke:#373435;stroke-width:0.9;stroke-miterlimit:22.9256}
    .fil2 {fill:none}
    .fil0 {fill:none;fill-rule:nonzero}
    .fil1 {fill:#282829}
   ]]>
  </style></defs>
 <g
   id="Capa_x0020_1"
   inkscape:label="Capa 1"
   inkscape:groupmode="layer"
   transform="translate(20882.358,-100023.73)">
  <metadata
   id="CorelCorpID_0Corel-Layer" />
  
  
  
  
  
  
  
  
  
  
  
  
  
  
  
  
  
  
  
  
  
  
  
  
  
  
  
  
  
  
  
  
  
  
  
  
  
  
  
  
  
  
  
  
  
  
  
  
  
  
  
  
  
  
  
  
  
  
  
  <path
   class="fil0 str4"
   d="m 12783.15,118658.04 h -1803.985 l -3.788,-1531.09 c -648.663,1029.5 -1422.5549,1544.26 -2619.8711,1544.26 -1066.9464,0 -1671.2708,-306.95 -2267.9299,-943.26 -557.2506,-594.28 -840.2946,-1354.96 -843.3307,-2289.81 l -22.2143,-6791.33 h 2517.8179 l 21.583,6567.62 c 1.2926,390.44 150.51,698.27 447.6221,923.04 297.0821,224.77 441.5801,350.46 939.4924,350.46 533.4732,0 846.1864,-153.85 1236.3936,-461.5 390.208,-307.66 584.576,-668.61 583.253,-1082.8 l -20.651,-6283.6 h 1835.608"
   id="path22" /><path
   class="fil0 str4"
   d="m 5174.9272,111083.58 c -327.8334,-36.97 -567.7115,-55.4 -719.8747,-55.4 -690.446,0 -1231.0735,193.93 -1621.8824,581.8 -390.8389,387.9 -585.2964,877.37 -583.4327,1468.46 l 17.3145,5559.71 -2133.95287,19.93 -31.20219,-10011.19 2133.95286,-19.93 6.0421,1939.43 c 173.6861,-591.09 523.2227,-1089.77 1048.5196,-1496.14 525.2969,-406.33 1051.8864,-431.62 1578.4758,-431.62 58.5267,0 157.9949,12.34 298.4949,36.93 z"
   id="path23" /><path
   class="fil0 str4"
   d="m -15457.382,109037.25 h 2532.427 l 3.667,1153.79 c 622.511,-1029.53 1365.261,-1544.3 2514.391,-1544.3 1023.9911,0 1821.4203,319.52 2392.3181,958.54 536.6595,591.71 806.4472,1354.96 809.363,2289.81 l 21.3425,6762.99 h -2563.4488 l -20.7113,-6567.7 c -1.2625,-390.47 -144.4679,-698.23 -429.6165,-923.03 -285.148,-224.81 -492.501,-337.28 -970.364,-337.28 -511.98,0 -812.128,153.84 -1186.614,461.53 -374.517,307.66 -561.039,668.58 -559.776,1082.8 l 19.809,6283.68 h -2532.457 z"
   id="path24" /><path
   class="fil0 str4"
   d="m -1788.3303,113678.55 c -2.2244,-869.15 -168.1852,-1575.54 -497.8221,-2122.02 -329.637,-543.54 -745.2152,-816.8 -1246.6746,-816.8 -501.4894,0 -913.3402,290.66 -1235.5223,869.11 -322.1821,581.39 -482.1008,1322.65 -479.8163,2226.64 1.984,752.89 174.5579,1395.29 517.8721,1930.18 343.2842,531.94 756.5478,799.36 1239.7909,799.36 501.4593,0 911.0857,-270.35 1228.849,-808.1 317.7032,-540.68 475.4876,-1232.49 473.3233,-2078.37 z"
   id="path25" /><path
   class="fil0 str4"
   d="m 126.36561,113669.81 c 4.11821,1592.94 -318.66509,2825.43 -968.34988,3697.48 -649.68483,872.05 -1567.17333,1308.08 -2752.49563,1308.08 -1103.2587,0 -1975.1463,-453.46 -2615.753,-1360.39 -640.5767,-906.96 -962.9091,-2145.25 -966.9371,-3714.95 -3.9679,-1546.43 312.082,-2755.65 948.0594,-3627.74 636.0076,-872.01 1532.9652,-1308.07 2690.9329,-1308.07 1148.8597,0 2045.8173,441.86 2690.90289,1325.55 645.05556,883.69 969.61239,2110.34 973.64042,3680.04 z"
   id="path26" /><path
   class="fil1 str1"
   d="m -19751.831,108646.96 50508.401,-0.11"
   id="path27" /><path
   class="fil1 str2"
   d="M -19751.831,118658.08 H 29116.922"
   id="path28" /><path
   class="fil1 str1"
   d="M -19741.34,124843.31 H 29127.413"
   id="path29" /><path
   class="fil1 str1"
   d="m 26446.28,126905.01 v -26505.2"
   id="path30" /><path
   class="fil1 str3"
   d="m -15441.541,126905.01 v -26505.2"
   id="path31" /><path
   class="fil1 str1"
   d="M 13461.422,122166.77 V 100399.85"
   id="path32" /><path
   class="fil1 str1"
   d="M 12783.15,122166.77 V 100399.85"
   id="path33" /><path
   class="fil1 str4"
   d="m 13461.422,108646.93 v 10011.11 h 2136.448 l -19.449,-6195.66 c -1.323,-423.91 153.967,-799.44 465.838,-1126.48 311.932,-327.03 688.102,-490.57 1128.509,-490.57 452.041,0 805.936,127.2 1061.716,381.55 220.88,218.05 331.802,478.46 332.733,781.27 l 20.922,6649.89 h 2433.921 l -19.419,-6180.5 c -1.262,-399.72 165.66,-772.2 500.678,-1114.4 335.018,-345.17 699.584,-517.81 1093.639,-517.81 452.011,0 811.708,127.2 1079.121,381.55 209.187,193.82 314.126,390.65 314.787,596.55 l 21.463,6834.61 h 2433.921 l -22.305,-7104.09 c -3.066,-981.14 -306.761,-1720.02 -910.995,-2216.65 -532.03,-458.01 -1252.687,-688.18 -2162.059,-690.42 h -13.256 -11.333 c -1118.77,3.24 -1988.583,481.7 -2609.35,1435.39 -695.316,-952.74 -1578.747,-1431.16 -2650.202,-1435.35 h -14.188 -13.377 c -492.742,2.02 -919.683,117.1 -1280.762,345.17 -364.387,230.13 -760.035,648.02 -1186.946,1253.68 l 8.717,-1598.85 z"
   id="path34" /><path
   class="fil1 str4"
   d="m 5229.6061,111071.46 -7.545,-2408.01 c -74.0075,-12.96 -191.3013,-10.39 -242.5534,-16.52 h -472.8724 c -405.7787,23.35 -811.3771,110.16 -1216.2239,423.32 -525.2969,406.37 -874.8335,905.05 -1048.5196,1496.14 l -5.982,-1919.46 H 133.09903 v 9991.22 H 2267.0519 l -17.3145,-5559.71 c -1.8637,-591.09 192.5938,-1080.56 583.4327,-1468.46 390.8089,-387.87 931.4364,-581.8 1621.8824,-581.8 152.1632,0 446.7203,6.32 774.5536,43.28 z"
   id="path35" /><path
   class="fil1 str4"
   d="m -7183.8734,118658.08 -21.3124,-6762.99 c -2.9459,-934.85 -272.7336,-1698.1 -809.3931,-2289.81 -562.6313,-629.81 -1345.3613,-949.25 -2348.1001,-958.35 h -44.218 -39.078 c -1126.946,11.6 -1859.866,526.29 -2475.343,1544.11 l -3.637,-1153.79 h -2516.586 v 5019.99 l 14.519,4600.84 h 2532.427 l -19.809,-6283.68 c -1.263,-414.22 185.259,-775.14 559.776,-1082.8 374.486,-307.69 674.604,-461.53 1186.614,-461.53 477.863,0 685.216,112.47 970.364,337.28 285.1486,224.8 428.354,532.56 429.6165,923.03 l 20.7113,6567.7 z"
   id="path36" /><path
   class="fil1 str4"
   d="m -7177.1399,113600.03 c 3.9979,1569.7 326.3604,2807.99 966.8769,3714.95 568.4028,804.66 1318.7883,1252.36 2251.3669,1343.1 h 762.7401 c 994.4419,-88.76 1779.2159,-519.02 2354.14167,-1290.79 649.68479,-872.05 972.46809,-2104.54 968.37994,-3697.48 -4.02803,-1569.7 -328.58486,-2796.35 -973.64042,-3680.04 -645.11569,-883.69 -1542.07329,-1325.55 -2690.87279,-1325.55 -1157.9978,0 -2054.9554,436.06 -2690.963,1308.07 -635.9774,872.09 -952.0574,2081.31 -948.0293,3627.74 z m 1929.0044,235.45 c -2.3146,-903.99 157.6041,-1645.25 479.7561,-2226.64 322.2723,-578.45 734.063,-869.11 1235.5223,-869.11 501.4895,0 917.0677,273.26 1246.7347,816.8 329.637,546.48 495.5677,1252.87 497.762,2122.02 2.1944,845.88 -155.59,1537.69 -473.2631,2078.37 -317.8234,537.75 -727.4498,808.1 -1228.9092,808.1 -483.183,0 -896.4766,-267.42 -1239.7608,-799.36 -343.2841,-534.89 -515.8881,-1177.29 -517.842,-1930.18 z"
   id="path37" /><path
   class="fil1 str3"
   d="M -19741.34,122166.8 H 29127.413"
   id="path38" /><path
   class="fil1 str5"
   d="m 19953.821,120094.16 c -143.927,0 -260.62,142.5 -260.62,318.26 0,175.76 116.693,318.27 260.62,318.27 143.927,0 260.619,-142.51 260.619,-318.27 0,-175.76 -116.692,-318.26 -260.619,-318.26 z"
   id="path39" /><path
   class="fil0 str1"
   d="m -12148.297,123694.88 c -0.181,33.73 -1.143,61.26 -2.886,82.59 h -949.983 c -1.684,12.44 -2.615,30.21 -2.736,53.3 -0.601,111.93 34.93,210.53 106.202,295.8 71.663,85.31 156.822,127.93 256.261,127.93 172.033,0 288.996,-97.72 350.949,-293.16 h 213.456 c -71.333,323.37 -252.053,485.04 -542.191,485.04 -406.17,0 -607.902,-252.27 -605.256,-756.86 1.142,-216.73 57.625,-394.4 169.417,-532.98 111.793,-138.57 254.758,-207.88 428.805,-207.88 170.77,0 306.401,56.86 406.951,170.55 113.687,129.69 170.71,321.61 171.011,575.67 z m -220.7,-114.61 c -24.95,-300.28 -141.432,-450.38 -349.477,-450.38 -216.371,0 -341.089,150.1 -374.185,450.38 z"
   id="path40"
   style="fill:#000000;fill-opacity:1" /><path
   id="path41"
   class="fil0 str1"
   d="m -10901.563,124004 c -0.721,136.81 -50.62,244.74 -149.668,323.81 -99.047,79.03 -224.848,118.57 -377.372,118.57 -193.976,0 -332.192,-41.74 -414.646,-125.25 -70.912,-71.07 -109.238,-186.56 -115.04,-346.46 h 201.402 c -0.481,94.16 34.779,167.02 105.811,218.53 61.112,44.41 134.758,66.62 220.94,66.62 94.508,0 172.123,-19.09 232.814,-57.3 60.751,-38.62 91.292,-95.04 91.683,-169.67 0.511,-99.92 -55.521,-163.86 -167.674,-192.75 l -325.76,-81.72 c -122.494,-31.97 -209.247,-83.51 -260.288,-154.58 -41.152,-58.62 -61.443,-138.57 -60.902,-239.85 0.662,-125.69 47.194,-226.53 139.598,-302.04 92.435,-75.47 214.869,-113.25 367.423,-113.25 142.544,0 254.276,36.86 335.108,110.61 80.861,73.71 122.554,180.75 125.139,321.12 h -206.421 c -4.179,-149.25 -100.761,-223.85 -289.778,-223.85 -69.589,0 -132.714,20.41 -189.287,61.27 -56.603,40.89 -85.04,92.4 -85.34,154.58 -0.451,85.27 60.54,143.9 183.065,175.91 l 337.723,87.92 c 202.002,53.3 302.462,175.9 301.47,367.78 z"
   style="fill:#000000;fill-opacity:1" /><path
   id="path42"
   class="fil0 str1"
   d="m -10170.265,124433.05 c -61.382,12.44 -121.111,18.65 -179.127,18.65 -72.925,0 -131.662,-22.21 -176.211,-66.63 -39.589,-39.06 -59.218,-84.39 -58.948,-135.89 l 5.561,-1055.34 h -181.531 l 1.082,-205.2 h 181.531 l 1.984,-378.43 h 208.887 l -1.984,378.43 h 206.361 l -1.082,205.2 h -206.361 l -5.201,986.03 c -0.24,44.42 30.301,66.63 91.653,66.63 24.859,0 63.005,-4.44 114.438,-13.33 z"
   style="fill:#000000;fill-opacity:1" /><path
   id="path43"
   class="fil0 str1"
   d="m -8911.7169,124387.75 h -208.8562 l 0.8116,-154.58 c -50.17,78.19 -104.3379,132.37 -162.5039,162.58 -63.1859,33.74 -150.2995,50.63 -261.4009,50.63 -165.7804,0 -281.5411,-56.87 -347.2521,-170.55 -37.7853,-62.19 -56.5126,-131.49 -56.0918,-207.88 l 5.6814,-1079.31 h 208.9163 l -5.4108,1026.01 c -0.3306,63.98 22.575,118.16 68.747,162.58 46.2021,44.42 104.1276,66.62 173.7163,66.62 104.4581,0 193.3753,-40.85 266.7516,-122.6 73.3762,-81.72 110.38,-181.2 111.0112,-298.48 l 4.3888,-834.13 h 208.8562 z"
   style="fill:#000000;fill-opacity:1" /><path
   id="path44"
   class="fil0 str1"
   d="m -7496.7369,124387.75 h -181.5618 l 0.8417,-157.22 c -83.3862,88.83 -150.8106,147.02 -202.3333,174.55 -51.5828,27.53 -118.7667,41.3 -201.6719,41.3 -182.3735,0 -324.5869,-66.63 -426.6703,-199.88 -102.0534,-133.26 -152.494,-318.01 -151.2615,-554.3 1.1723,-222.09 53.0858,-401.52 155.7704,-538.34 102.6546,-136.81 236.9322,-205.2 402.7126,-205.2 162.4738,0 296.3907,68.39 401.7507,205.2 l 3.7274,-708.88 h 208.9164 z m -205.3993,-668.9 c 1.8937,-360.67 -130.1895,-540.98 -396.2798,-540.98 -100.7007,0 -180.119,47.94 -238.6456,143.9 -58.1359,95.92 -87.805,219.41 -88.5866,370.43 -0.8717,165.22 30.7814,297.59 94.5084,397.07 64.1178,99.48 152.9749,149.26 266.932,149.26 110.6806,0 198.3653,-46.21 263.5051,-138.61 64.7491,-92.36 97.6947,-219.41 98.5665,-381.07 z"
   style="fill:#000000;fill-opacity:1" /><path
   id="path45"
   class="fil0 str1"
   d="m -6963.3238,122722.13 h -208.8563 l 1.4429,-277.15 h 208.8863 z m -8.7775,1665.62 h -208.8562 l 7.3646,-1399.11 h 208.8863 z"
   style="fill:#000000;fill-opacity:1" /><path
   id="path46"
   class="fil0 str1"
   d="m -5521.0194,123678.87 c -1.2024,227.41 -45.2702,406.84 -132.1734,538.33 -101.9331,152.78 -255.6896,229.18 -461.2392,229.18 -193.9766,0 -341.1499,-68.39 -441.5801,-205.21 -97.1235,-131.45 -145.039,-318.88 -143.7464,-562.3 1.1723,-227.41 53.0858,-405.96 155.7403,-535.65 102.6246,-129.69 248.4452,-194.56 437.4619,-194.56 188.9866,0 334.1159,64.87 435.4178,194.56 101.2417,129.69 151.3215,308.24 150.1191,535.65 z m -213.8762,0 c 0.8116,-158.14 -35.8314,-284.27 -109.9291,-378.43 -67.5145,-85.27 -155.1392,-127.93 -262.904,-127.93 -107.7647,0 -195.8403,42.66 -264.2867,127.93 -75.0596,94.16 -113.0252,220.29 -113.8669,378.43 -0.8717,165.23 32.4046,297.6 99.829,397.08 67.4544,99.48 158.3556,149.26 272.7636,149.26 114.3779,0 205.8202,-49.78 274.3567,-149.26 68.4765,-99.48 103.1657,-231.85 104.0374,-397.08 z"
   style="fill:#000000;fill-opacity:1" /><path
   class="fil1 str4"
   d="m 12783.15,108660 v 9998.04"
   id="path47" />
 <g
   style="clip-rule:evenodd;fill-rule:evenodd;image-rendering:optimizeQuality;shape-rendering:geometricPrecision;text-rendering:geometricPrecision"
   id="g50"
   transform="matrix(26.458333,0,0,26.458333,-94142.004,93842.03)"><g
     id="Capa_x0020_1-4">
  <metadata
   id="CorelCorpID_0Corel-Layer-8" />
  <path
   class="fil0 str0"
   d="m 47.66,20.31 c -0.71,-0.07 -1.24,-0.1 -1.57,-0.1 -1.5,0 -2.67,0.35 -3.52,1.04 -0.85,0.69 -1.27,1.56 -1.27,2.61 l 0.04,9.9 -4.64,0.03 -0.07,-17.82 4.64,-0.03 0.01,3.45 c 0.38,-1.05 1.14,-1.94 2.28,-2.66 1.14,-0.73 2.29,-0.77 3.43,-0.77 0.13,0 0.35,0.02 0.65,0.06 z"
   id="path1-8" />
  <path
   class="fil0 str0"
   d="m 2.81,16.67 h 5.5 l 0.01,2.05 c 1.35,-1.83 2.97,-2.75 5.47,-2.75 2.22,0 3.96,0.57 5.2,1.71 1.16,1.05 1.75,2.41 1.76,4.07 l 0.04,12.04 H 15.22 L 15.18,22.1 c -0.01,-0.69 -0.32,-1.24 -0.94,-1.64 -0.62,-0.4 -1.07,-0.6 -2.11,-0.6 -1.11,0 -1.76,0.27 -2.58,0.82 -0.81,0.55 -1.22,1.19 -1.21,1.93 L 8.38,33.79 H 2.87 Z"
   id="path2-2" />
  <path
   class="fil0 str0"
   d="m 32.52,24.93 c 0,-1.55 -0.36,-2.8 -1.08,-3.78 -0.72,-0.97 -1.62,-1.45 -2.71,-1.45 -1.09,0 -1.99,0.52 -2.69,1.55 -0.7,1.03 -1.04,2.35 -1.04,3.96 0.01,1.34 0.38,2.48 1.13,3.43 0.74,0.95 1.64,1.43 2.69,1.43 1.09,0 1.98,-0.48 2.67,-1.44 0.69,-0.96 1.04,-2.19 1.03,-3.7 z"
   id="path3-4" />
  <path
   class="fil0 str0"
   d="m 36.68,24.91 c 0.01,2.84 -0.69,5.03 -2.1,6.59 -1.41,1.55 -3.41,2.32 -5.98,2.32 -2.4,0 -4.3,-0.8 -5.69,-2.42 -1.39,-1.61 -2.09,-3.82 -2.1,-6.61 -0.01,-2.75 0.68,-4.91 2.06,-6.46 1.38,-1.55 3.33,-2.33 5.85,-2.33 2.5,0 4.45,0.79 5.85,2.36 1.4,1.58 2.11,3.76 2.11,6.55 z"
   id="path4-5" />
  <path
   class="fil1 str0"
   d="M 47.78,20.29 47.76,16 C 47.6,15.98 47.34,15.98 47.23,15.97 h -1.02 c -0.89,0.04 -1.77,0.2 -2.65,0.76 -1.14,0.72 -1.9,1.61 -2.28,2.66 L 41.27,15.97 H 36.7 v 17.79 h 4.64 l -0.04,-9.9 c 0,-1.05 0.42,-1.92 1.27,-2.61 0.85,-0.69 2.02,-1.04 3.52,-1.04 0.33,0 0.97,0.01 1.69,0.08 z"
   id="path5-5" />
  <path
   class="fil1 str0"
   d="M 20.79,33.79 20.75,21.75 c -0.01,-1.66 -0.6,-3.02 -1.76,-4.07 -1.23,-1.12 -2.93,-1.69 -5.11,-1.71 H 13.79 13.7 c -2.45,0.02 -4.04,0.94 -5.38,2.75 L 8.31,16.67 H 2.84 v 8.93 l 0.03,8.19 H 8.38 L 8.34,22.61 c -0.01,-0.74 0.4,-1.38 1.21,-1.93 0.82,-0.55 1.47,-0.82 2.58,-0.82 1.04,0 1.49,0.2 2.11,0.6 0.62,0.4 0.93,0.95 0.94,1.64 l 0.04,11.69 z"
   id="path6-1" />
  <path
   class="fil1 str0"
   d="m 20.81,24.79 c 0.01,2.79 0.71,5 2.1,6.61 1.23,1.43 2.87,2.23 4.89,2.39 h 1.66 c 2.16,-0.15 3.87,-0.92 5.12,-2.29 1.41,-1.56 2.11,-3.75 2.1,-6.59 0,-2.79 -0.71,-4.97 -2.11,-6.55 C 33.17,16.79 31.22,16 28.72,16 c -2.52,0 -4.47,0.78 -5.85,2.33 -1.38,1.55 -2.07,3.71 -2.06,6.46 z M 25,25.21 c 0,-1.61 0.34,-2.93 1.04,-3.96 0.7,-1.03 1.6,-1.55 2.69,-1.55 1.09,0 1.99,0.48 2.71,1.45 0.72,0.98 1.08,2.23 1.08,3.78 0.01,1.51 -0.34,2.74 -1.03,3.7 -0.69,0.96 -1.58,1.44 -2.67,1.44 -1.05,0 -1.95,-0.48 -2.69,-1.43 C 25.38,27.69 25.01,26.55 25,25.21 Z"
   id="path7-7" />
  <ellipse
   class="fil2 str0"
   cx="25"
   cy="25.209999"
   rx="24.5"
   ry="24.290001"
   id="ellipse7" />
 </g></g><g
   style="clip-rule:evenodd;fill-rule:evenodd;image-rendering:optimizeQuality;shape-rendering:geometricPrecision;text-rendering:geometricPrecision"
   id="g50-9"
   transform="matrix(200.39683,0,0,202.10587,-105760.13,107267.22)"><g
     id="Capa_x0020_1-4-4">
  <metadata
   id="CorelCorpID_0Corel-Layer-8-8" />
  <path
   class="fil0 str0"
   d="m 47.66,20.31 c -0.71,-0.07 -1.24,-0.1 -1.57,-0.1 -1.5,0 -2.67,0.35 -3.52,1.04 -0.85,0.69 -1.27,1.56 -1.27,2.61 l 0.04,9.9 -4.64,0.03 -0.07,-17.82 4.64,-0.03 0.01,3.45 c 0.38,-1.05 1.14,-1.94 2.28,-2.66 1.14,-0.73 2.29,-0.77 3.43,-0.77 0.13,0 0.35,0.02 0.65,0.06 z"
   id="path1-8-8"
   style="fill:none;fill-rule:nonzero;stroke:#ffffff;stroke-width:0.9;stroke-miterlimit:22.9256;stroke-opacity:1" />
  <path
   class="fil0 str0"
   d="m 2.81,16.67 h 5.5 l 0.01,2.05 c 1.35,-1.83 2.97,-2.75 5.47,-2.75 2.22,0 3.96,0.57 5.2,1.71 1.16,1.05 1.75,2.41 1.76,4.07 l 0.04,12.04 H 15.22 L 15.18,22.1 c -0.01,-0.69 -0.32,-1.24 -0.94,-1.64 -0.62,-0.4 -1.07,-0.6 -2.11,-0.6 -1.11,0 -1.76,0.27 -2.58,0.82 -0.81,0.55 -1.22,1.19 -1.21,1.93 L 8.38,33.79 H 2.87 Z"
   id="path2-2-2"
   style="fill:none;fill-rule:nonzero;stroke:#ffffff;stroke-width:0.9;stroke-miterlimit:22.9256;stroke-opacity:1" />
  <path
   class="fil0 str0"
   d="m 32.52,24.93 c 0,-1.55 -0.36,-2.8 -1.08,-3.78 -0.72,-0.97 -1.62,-1.45 -2.71,-1.45 -1.09,0 -1.99,0.52 -2.69,1.55 -0.7,1.03 -1.04,2.35 -1.04,3.96 0.01,1.34 0.38,2.48 1.13,3.43 0.74,0.95 1.64,1.43 2.69,1.43 1.09,0 1.98,-0.48 2.67,-1.44 0.69,-0.96 1.04,-2.19 1.03,-3.7 z"
   id="path3-4-4"
   style="fill:none;fill-rule:nonzero;stroke:#ffffff;stroke-width:0.9;stroke-miterlimit:22.9256;stroke-opacity:1" />
  <path
   class="fil0 str0"
   d="m 36.68,24.91 c 0.01,2.84 -0.69,5.03 -2.1,6.59 -1.41,1.55 -3.41,2.32 -5.98,2.32 -2.4,0 -4.3,-0.8 -5.69,-2.42 -1.39,-1.61 -2.09,-3.82 -2.1,-6.61 -0.01,-2.75 0.68,-4.91 2.06,-6.46 1.38,-1.55 3.33,-2.33 5.85,-2.33 2.5,0 4.45,0.79 5.85,2.36 1.4,1.58 2.11,3.76 2.11,6.55 z"
   id="path4-5-5"
   style="fill:none;fill-rule:nonzero;stroke:#ffffff;stroke-width:0.9;stroke-miterlimit:22.9256;stroke-opacity:1" />
  <path
   class="fil1 str0"
   d="M 47.78,20.29 47.76,16 C 47.6,15.98 47.34,15.98 47.23,15.97 h -1.02 c -0.89,0.04 -1.77,0.2 -2.65,0.76 -1.14,0.72 -1.9,1.61 -2.28,2.66 L 41.27,15.97 H 36.7 v 17.79 h 4.64 l -0.04,-9.9 c 0,-1.05 0.42,-1.92 1.27,-2.61 0.85,-0.69 2.02,-1.04 3.52,-1.04 0.33,0 0.97,0.01 1.69,0.08 z"
   id="path5-5-5"
   style="fill:#ffffff;stroke:#ffffff;stroke-width:0.9;stroke-miterlimit:22.9256;stroke-opacity:1;fill-opacity:1" />
  <path
   class="fil1 str0"
   d="M 20.79,33.79 20.75,21.75 c -0.01,-1.66 -0.6,-3.02 -1.76,-4.07 -1.23,-1.12 -2.93,-1.69 -5.11,-1.71 H 13.79 13.7 c -2.45,0.02 -4.04,0.94 -5.38,2.75 L 8.31,16.67 H 2.84 v 8.93 l 0.03,8.19 H 8.38 L 8.34,22.61 c -0.01,-0.74 0.4,-1.38 1.21,-1.93 0.82,-0.55 1.47,-0.82 2.58,-0.82 1.04,0 1.49,0.2 2.11,0.6 0.62,0.4 0.93,0.95 0.94,1.64 l 0.04,11.69 z"
   id="path6-1-1"
   style="fill:#ffffff;stroke:#ffffff;stroke-width:0.9;stroke-miterlimit:22.9256;stroke-opacity:1;fill-opacity:1" />
  <path
   class="fil1 str0"
   d="m 20.81,24.79 c 0.01,2.79 0.71,5 2.1,6.61 1.23,1.43 2.87,2.23 4.89,2.39 h 1.66 c 2.16,-0.15 3.87,-0.92 5.12,-2.29 1.41,-1.56 2.11,-3.75 2.1,-6.59 0,-2.79 -0.71,-4.97 -2.11,-6.55 C 33.17,16.79 31.22,16 28.72,16 c -2.52,0 -4.47,0.78 -5.85,2.33 -1.38,1.55 -2.07,3.71 -2.06,6.46 z M 25,25.21 c 0,-1.61 0.34,-2.93 1.04,-3.96 0.7,-1.03 1.6,-1.55 2.69,-1.55 1.09,0 1.99,0.48 2.71,1.45 0.72,0.98 1.08,2.23 1.08,3.78 0.01,1.51 -0.34,2.74 -1.03,3.7 -0.69,0.96 -1.58,1.44 -2.67,1.44 -1.05,0 -1.95,-0.48 -2.69,-1.43 C 25.38,27.69 25.01,26.55 25,25.21 Z"
   id="path7-7-7"
   style="fill:#ffffff;stroke:#ffffff;stroke-width:0.9;stroke-miterlimit:22.9256;stroke-opacity:1;fill-opacity:1" />
  <ellipse
   class="fil2 str0"
   cx="25"
   cy="25.209999"
   rx="24.5"
   ry="24.290001"
   id="ellipse7-1"
   style="fill:none;fill-opacity:1;stroke:#ffffff;stroke-width:0.9;stroke-miterlimit:22.9256;stroke-opacity:1" />
 </g></g><g
   style="clip-rule:evenodd;fill-rule:evenodd;image-rendering:optimizeQuality;shape-rendering:geometricPrecision;text-rendering:geometricPrecision"
   id="g50-9-5"
   transform="matrix(200.39683,0,0,202.10587,-95451.95,114348.52)"><g
     id="Capa_x0020_1-4-4-2"
     style="stroke:#020202;stroke-opacity:1">
  <metadata
   id="CorelCorpID_0Corel-Layer-8-8-7" />
  <path
   class="fil0 str0"
   d="m -5.6143711,58.220352 c -0.71,-0.07 -1.24,-0.1 -1.57,-0.1 -1.5,0 -2.67,0.35 -3.5199999,1.04 -0.85,0.69 -1.27,1.56 -1.27,2.61 l 0.04,9.9 -4.64,0.03 -0.07,-17.82 4.64,-0.03 0.01,3.45 c 0.38,-1.05 1.14,-1.94 2.2799999,-2.66 1.14,-0.73 2.29,-0.77 3.43,-0.77 0.13,0 0.35,0.02 0.65,0.06 z"
   id="path1-8-8-6"
   style="fill:none;fill-rule:nonzero;stroke:#020202;stroke-width:0.9;stroke-miterlimit:22.9256;stroke-opacity:1" />
  <path
   class="fil0 str0"
   d="m -50.464371,54.580352 h 5.5 l 0.01,2.05 c 1.35,-1.83 2.97,-2.75 5.47,-2.75 2.22,0 3.96,0.57 5.2,1.71 1.16,1.05 1.75,2.41 1.76,4.07 l 0.04,12.04 h -5.57 l -0.04,-11.69 c -0.01,-0.69 -0.32,-1.24 -0.94,-1.64 -0.62,-0.4 -1.07,-0.6 -2.11,-0.6 -1.11,0 -1.76,0.27 -2.58,0.82 -0.81,0.55 -1.22,1.19 -1.21,1.93 l 0.04,11.18 h -5.51 z"
   id="path2-2-2-1"
   style="fill:none;fill-rule:nonzero;stroke:#020202;stroke-width:0.9;stroke-miterlimit:22.9256;stroke-opacity:1" />
  <path
   class="fil0 str0"
   d="m -20.754371,62.840352 c 0,-1.55 -0.36,-2.8 -1.08,-3.78 -0.72,-0.97 -1.62,-1.45 -2.71,-1.45 -1.09,0 -1.99,0.52 -2.69,1.55 -0.7,1.03 -1.04,2.35 -1.04,3.96 0.01,1.34 0.38,2.48 1.13,3.43 0.74,0.95 1.64,1.43 2.69,1.43 1.09,0 1.98,-0.48 2.67,-1.44 0.69,-0.96 1.04,-2.19 1.03,-3.7 z"
   id="path3-4-4-4"
   style="fill:none;fill-rule:nonzero;stroke:#020202;stroke-width:0.9;stroke-miterlimit:22.9256;stroke-opacity:1" />
  <path
   class="fil0 str0"
   d="m -16.594371,62.820352 c 0.01,2.84 -0.69,5.03 -2.1,6.59 -1.41,1.55 -3.41,2.32 -5.98,2.32 -2.4,0 -4.3,-0.8 -5.69,-2.42 -1.39,-1.61 -2.09,-3.82 -2.1,-6.61 -0.01,-2.75 0.68,-4.91 2.06,-6.46 1.38,-1.55 3.33,-2.33 5.85,-2.33 2.5,0 4.45,0.79 5.85,2.36 1.4,1.58 2.11,3.76 2.11,6.55 z"
   id="path4-5-5-2"
   style="fill:none;fill-rule:nonzero;stroke:#020202;stroke-width:0.9;stroke-miterlimit:22.9256;stroke-opacity:1" />
  <path
   class="fil1 str0"
   d="m -5.4943711,58.200352 -0.02,-4.29 c -0.16,-0.02 -0.42,-0.02 -0.53,-0.03 h -1.02 c -0.89,0.04 -1.77,0.2 -2.65,0.76 -1.1399999,0.72 -1.8999999,1.61 -2.2799999,2.66 l -0.01,-3.42 h -4.57 v 17.79 h 4.64 l -0.04,-9.9 c 0,-1.05 0.42,-1.92 1.27,-2.61 0.8499999,-0.69 2.0199999,-1.04 3.5199999,-1.04 0.33,0 0.97,0.01 1.69,0.08 z"
   id="path5-5-5-3"
   style="fill:#000000;fill-opacity:1;stroke:#020202;stroke-width:0.9;stroke-miterlimit:22.9256;stroke-opacity:1" />
  <path
   class="fil1 str0"
   d="m -32.484371,71.700352 -0.04,-12.04 c -0.01,-1.66 -0.6,-3.02 -1.76,-4.07 -1.23,-1.12 -2.93,-1.69 -5.11,-1.71 h -0.09 -0.09 c -2.45,0.02 -4.04,0.94 -5.38,2.75 l -0.01,-2.05 h -5.47 v 8.93 l 0.03,8.19 h 5.51 l -0.04,-11.18 c -0.01,-0.74 0.4,-1.38 1.21,-1.93 0.82,-0.55 1.47,-0.82 2.58,-0.82 1.04,0 1.49,0.2 2.11,0.6 0.62,0.4 0.93,0.95 0.94,1.64 l 0.04,11.69 z"
   id="path6-1-1-2"
   style="fill:#000000;fill-opacity:1;stroke:#020202;stroke-width:0.9;stroke-miterlimit:22.9256;stroke-opacity:1" />
  <path
   class="fil1 str0"
   d="m -32.464371,62.700352 c 0.01,2.79 0.71,5 2.1,6.61 1.23,1.43 2.87,2.23 4.89,2.39 h 1.66 c 2.16,-0.15 3.87,-0.92 5.12,-2.29 1.41,-1.56 2.11,-3.75 2.1,-6.59 0,-2.79 -0.71,-4.97 -2.11,-6.55 -1.4,-1.57 -3.35,-2.36 -5.85,-2.36 -2.52,0 -4.47,0.78 -5.85,2.33 -1.38,1.55 -2.07,3.71 -2.06,6.46 z m 4.19,0.42 c 0,-1.61 0.34,-2.93 1.04,-3.96 0.7,-1.03 1.6,-1.55 2.69,-1.55 1.09,0 1.99,0.48 2.71,1.45 0.72,0.98 1.08,2.23 1.08,3.78 0.01,1.51 -0.34,2.74 -1.03,3.7 -0.69,0.96 -1.58,1.44 -2.67,1.44 -1.05,0 -1.95,-0.48 -2.69,-1.43 -0.75,-0.95 -1.12,-2.09 -1.13,-3.43 z"
   id="path7-7-7-2"
   style="fill:#000000;fill-opacity:1;stroke:#020202;stroke-width:0.9;stroke-miterlimit:22.9256;stroke-opacity:1" />
  <ellipse
   class="fil2 str0"
   cx="-28.27437"
   cy="63.12035"
   rx="24.5"
   ry="24.290001"
   id="ellipse7-1-1"
   style="fill:none;fill-opacity:1;stroke:#020202;stroke-width:0.9;stroke-miterlimit:22.9256;stroke-opacity:1" />
 </g></g></g>
</svg>
